<svg xmlns="http://www.w3.org/2000/svg" viewBox="0 0 114.9 114.9"><path d="M106.7 57.9a26.3 26.3 0 0 0-16.5-13.8l-1.2-.3-3.1-.5a17.4 17.4 0 1 0-8 0 26 26 0 0 0-20.5 14c-3.9-7-9.4-11.4-16.2-13.2l-1.2-.3-3.1-.5a17.4 17.4 0 1 0-8 0A26 26 0 0 0 8.1 57.8c-3.6 7-4.3 13.9-4.4 14.2A4.7 4.7 0 0 0 8 77.2h.5c2.4 0 4.5-1.8 4.7-4.3.1-.6 1.1-9.9 7.1-15.7v43.2c0 3 2.4 5.4 5.4 5.4 3 0 5.4-2.4 5.4-5.4V80.1h3.7v20.3c0 3 2.4 5.4 5.4 5.4 3 0 5.4-2.4 5.4-5.4V57.2c6 5.8 7.1 15.1 7.1 15.7a4.8 4.8 0 0 0 3.3 4h.1l.8.2h1.2l.5-.1.4-.1.5-.2.3-.1.6-.4.1-.1c.9-.8 1.6-1.9 1.7-3.1.1-.6 1.1-9.9 7.1-15.7v43.2c0 3 2.4 5.4 5.4 5.4 3 0 5.4-2.4 5.4-5.4V80.1h3.7v20.3c0 3 2.4 5.4 5.4 5.4 3 0 5.4-2.4 5.4-5.4V57.2c6 5.8 7.1 15.1 7.1 15.7a4.8 4.8 0 0 0 4.7 4.3h.5a4.9 4.9 0 0 0 4.3-5.2c-.1-.3-.8-7.2-4.5-14.1z" fill="#85D5ED"/></svg>