<svg id="Layer_1" xmlns="http://www.w3.org/2000/svg" viewBox="0 0 114.9 114.9"><style>.st0{fill:#85D5ED}</style><path class="st0" d="M60.8 51.2l-7.9 7.7c-6-5.3-13.2-8.9-21.3-10.6a52.7 52.7 0 0 0-24.3 1A50.8 50.8 0 0 1 27 16.8l33.8 34.4zM64.5 53.6L98 87.8a50.8 50.8 0 0 1-31.9 19.6 48.6 48.6 0 0 0-10-45.3l8.4-8.5z"/><path class="st0" d="M50.7 67.5a40.2 40.2 0 0 1 7.1 40.5 50.5 50.5 0 0 1-34.4-13.2l27.3-27.3zM47.7 64.3L20.3 91.7A50.3 50.3 0 0 1 7 61c-.3-3.5-.4-3.6 3-4.4 11.7-3.1 22.9-2 33.3 4.5 1.5.9 2.9 2.1 4.4 3.2zM31 14.3a50.1 50.1 0 0 1 29.4-7.4v1.7a46.4 46.4 0 0 0 9.4 28.2l2 2.4c.2.3.3.9.1 1.1l-7.7 7.8A5244 5244 0 0 1 31 14.3zM67.5 50.5l7.7-7.7c1.9 1.4 3.7 2.9 5.7 4.1 7.8 5 16.4 7.3 25.7 7.2 1.1 0 1.5.3 1.5 1.4a50.4 50.4 0 0 1-7.3 28.1l-.4.4-32.9-33.5zM91.6 20.3l-14 14a38.4 38.4 0 0 1-9.7-26.1c4.9-.5 19.8 7.2 23.7 12.1zM94.7 23.2a50.1 50.1 0 0 1 12.1 23.4c-10 0-18.8-2.9-26.2-9.3l14.1-14.1z"/></svg>