<svg xmlns="http://www.w3.org/2000/svg" viewBox="0 0 114.9 114.9"><path d="M12.4 69.8a24.3 24.3 0 0 1-6.2-8.1c-1.6-3.3-2.4-6.5-2.4-9.6s.8-5.8 2.5-8.1c2-2.7 4.6-4 7.9-4s6.4 1.2 9.3 3.6c2.5 2.1 4.6 4.8 6.2 8.1 1.6 3.3 2.4 6.5 2.4 9.6s-.8 5.8-2.5 8.1a9.7 9.7 0 0 1-8 3.8c-3.2-.1-6.3-1.2-9.2-3.4zm77.9 32.8c-2 1.1-5 1.7-9 1.7-2 0-4-.3-6.3-.8l-6-2-5.8-1.8c-2.1-.6-4-.8-5.9-.8s-3.8.3-6.1.8c-1.4.3-3.5.9-6.2 1.8l-6.2 2c-2.5.6-4.8.8-6.9.8-7.8 0-11.7-3-11.7-9 0-4.7 2-9.9 6-15.6S35 69.3 40.7 65.6c6-4.2 11.5-6.3 16.5-6.3S68 61.4 74 65.6a53 53 0 0 1 14.5 14.2 28 28 0 0 1 6 15.5c0 3.5-1.4 6-4.2 7.3zM33.1 43a24.4 24.4 0 0 1-8-17.6c0-3.8 1-7.1 2.9-10 2.2-3.2 5.3-4.8 9.2-4.8a13 13 0 0 1 9 3.6c2.4 2.1 4.3 4.8 5.7 8.1s2.1 6.4 2.1 9.3c0 3.9-1 7.3-2.9 10-2.2 3.3-5.3 5-9.2 5-3.2-.1-6.1-1.2-8.8-3.6zm29.8-20.8a22 22 0 0 1 5.7-8.1c2.7-2.4 5.7-3.6 9-3.6 3.9 0 7 1.6 9.2 4.8 2 2.9 2.9 6.3 2.9 10a24 24 0 0 1-8 17.6 13 13 0 0 1-8.8 3.6c-3.9 0-7-1.7-9.2-5-2-2.8-2.9-6.1-2.9-10 0-3 .7-6.1 2.1-9.3zm45.7 39.5c-1.6 3.3-3.7 6-6.2 8.1-2.9 2.2-6 3.3-9.3 3.3a9.6 9.6 0 0 1-7.9-3.8c-1.7-2.2-2.5-4.9-2.5-8.1s.8-6.4 2.4-9.6 3.7-6 6.2-8.1c2.9-2.4 6-3.6 9.3-3.6 3.3 0 5.9 1.3 7.9 4 1.7 2.2 2.5 5 2.5 8.2 0 3.2-.8 6.3-2.4 9.6z" fill="#85D5ED"/></svg>