<svg id="Layer_1" xmlns="http://www.w3.org/2000/svg" viewBox="0 0 114.9 114.9"><style>.st0{fill:#85D5ED}</style><path class="st0" d="M95.3 70c-2.5 0-4.5 2-4.5 4.5s2 4.5 4.5 4.5 4.5-2 4.5-4.5c.1-2.4-2-4.5-4.5-4.5z"/><path class="st0" d="M77.5 9.4L37.3 19.7 2.8 15.5v85.8l34.5 4.2 40.2-10.4v.1l34.5 6.2V15.6L77.5 9.4zM23.7 61.7l-.2-1.7 6.2-.4.1 1.4c.2 1.4.5 3.7 1.2 6.2l-5.9 1.7c-.8-3-1.2-5.6-1.4-7.2zm11.4 24.5a28.5 28.5 0 0 1-5.9-7.2l5.2-3.5a20 20 0 0 0 4.4 5.4l-3.7 5.3zm-1-29.5l-8.4-7-8 9.6-6.8-5.6 8-9.6-8.4-7 6.4-7.8 8.4 7 8-9.6 6.8 5.6-8 9.6 8.4 7-6.4 7.8zm19.4 33.8l-1.5.2c-2.4.3-4.7.3-6.9-.1l.8-6.6c2 .3 4.2.3 6.6-.1h.1l1.2 6.6h-.3zm10-4.6l-4.2-5c1.3-1.3 2.1-3 2.4-5.3l6.1 1.2c-.6 3.8-2 6.8-4.3 9.1zm-1.9-19.5l-.1-1.7c-.2-2.3-.4-4.6-.4-6.9h6.2c0 2.1.2 4.3.4 6.5l.1 1.7-6.2.4zm10.3-21.1a9.2 9.2 0 0 0-3.5 4.1l-5.6-3c1.3-2.9 3.2-5.2 5.9-6.9l.5-.3 3.1 5.8c-.1.2-.2.2-.4.3zm22.5 5.4c1.6 4.7 2.1 8.5 2.2 8.7l-6.1 1.1s-.5-3.4-1.8-7.4l5.7-2.4zm-15.1-7.3l.7-6.6c2.9.4 5.8 1.8 8.5 3.9l-3.6 5.4a12.5 12.5 0 0 0-5.6-2.7zm16 39.5a8.3 8.3 0 1 1 0-16.6 8.3 8.3 0 1 1 0 16.6z"/></svg>