<svg id="Layer_1" xmlns="http://www.w3.org/2000/svg" viewBox="0 0 114.9 114.9"><style>.st0{fill:#85D5ED}</style><path class="st0" d="M49.7 35.2h4.8a3.6 3.6 0 0 1 6.4 0h4.2l8.2-12.4s2.4-6.7 0-10.3L72.4 3h-3.2v3.9s-6.9 4.7-10.3 9h-3c-3.4-4.3-10.3-9-10.3-9V3h-3.2l-.9 9.4c-2.4 3.6 0 10.3 0 10.3l8.2 12.5zM103.1 96.8s-6-39.3-36.3-59h-5.6a3.5 3.5 0 0 1-3.4 2.6c-1.6 0-3-1.1-3.4-2.6H48c-30.3 19.7-36.3 59-36.3 59 1 3.2 5.1 5.4 7.9 6.7 4.8-24.7 13.8-35.3 13.8-35.3-6.9 13.6-10.2 37-10.2 37 5.4 3.9 9.4 2.1 12.8 1.3 1.7-5.3 5.6-20.9 9.6-29L42.1 108H42c-.3-.2-.5-.5-.8-.6 4.5 4.1 16.3 4.5 16.3 4.5s8.3-1.1 13.2-4.3c-1.5-5.2-7.4-30-7.4-30l10.8 29.8-.3-.1c3.3 1.4 7.1 3.1 14.3-2L73.2 70.1c4.1 5.7 15.7 26.1 19.8 32.7 3.3-.7 9.1-2.5 10.1-6zM93 102.8s-.1 0 0 0c-.1 0 0 0 0 0z"/></svg>