<svg xmlns="http://www.w3.org/2000/svg" viewBox="0 0 114.9 114.9"><path d="M16.3 37c1.8-3.3 3.8-6.4 5.3-9.8 2-4.6 5.8-6.2 10.4-6.7a195.8 195.8 0 0 1 53.7.5c3.1.4 5.5 2 6.9 5 1.7 3.4 3.6 6.7 5.5 10l.5.8c3.6-2.4 9-2.3 12.4.3 1 .8 1.5 2.1 1.1 3.4-.3 1.2-1.3 1.5-2.3 1.6l-4.2.3-1.2.1c-.5.1-.9.4-1.3.6l.7 1.3c3 2.9 5.4 6.3 7.5 10 1.9 3.3 3 6.9 2.8 10.8v7.5c.1 2.5-.6 4.8-1.7 7.1-.3.5-.5 1.2-.5 1.8v12c0 1.9-.5 2.4-2.4 2.4H97.4c-1.7 0-2.3-.6-2.3-2.3v-6.8H20v6.2c0 2.6-.4 2.9-2.9 2.9H5.4c-1.8 0-2.3-.5-2.3-2.4V81.8c0-.6-.2-1.2-.5-1.6C1.4 78 .6 75.6.7 73v-8.3C.6 59.5 2.6 55 5.8 50.9l5.7-6.8c.7-.8.5-1.3-.6-1.5a74.7 74.7 0 0 0-6.1-.6c-.9-.1-1.8-.4-2-1.4-.2-1.1-.3-2.3.7-3.1.6-.5 1.2-1 1.9-1.2a42 42 0 0 1 4.8-1.2c2.4-.4 4.4 0 6.1 1.9zm41.2 2.2h35.1c1.7 0 2.4-.6 2.5-2.3 0-.8-.2-1.8-.6-2.5a110 110 0 0 0-4.8-8.2 6 6 0 0 0-5.3-2.9H30.7c-2.3 0-4.1 1-5.2 2.8a95.9 95.9 0 0 0-5.1 8.8c-.3.6-.4 1.5-.3 2.3.2 1.5.8 2 2.3 2h35.1zM47.1 66.6v-.1h5.5c2.1 0 3.6-1.4 3.6-3.6v-3.2c0-2.6-1.2-3.9-3.8-3.9H36.8c-2 0-3 1-3 3 .1 2.5 1.6 4.3 3.2 5.9.7.8 1.9 1.3 3 1.5 2.3.3 4.7.3 7.1.4zm23.4-10.8h-8c-2.5 0-3.7 1.3-3.7 3.8v3.1c0 2.4 1.4 3.8 3.9 3.8h10c3.2.1 5.5-1.1 7.1-3.9.4-.7.9-1.4 1.2-2.2 1.1-2.5-.3-4.6-3-4.6h-7.5zm34.8 1.2c.1-3.1-1-4.2-3.7-4.1l-2.4.2c-2.6.4-5.2 1-7.9 1.2-3.2.2-5 1.9-6.2 4.6-.7 1.5 0 2.7 1.7 2.7.9 0 1.8-.2 2.7-.4 2.9-.6 5.8-.8 8.5.8.5.3 1.5.1 2.1-.2 1.1-.5 2-1.3 3.1-1.8 1.5-.8 2.1-1.9 2.1-3zm-95.6-.5c0 1.6.6 2.7 2.1 3.4l2.3 1.4c1.2.9 2.3 1 3.6.3 1.7-1 3.6-1.3 5.6-.8 1.5.3 3 .6 4.5.7 1.5.2 2.7-.8 2.3-1.9-.7-2.1-1.9-4-4.2-4.9-.9-.4-1.9-.4-2.9-.5-3.2-.5-6.3-1-9.5-1.3-2.7-.3-3.8.9-3.8 3.6z" fill="#85D5ED"/></svg>