<svg id="Layer_1" xmlns="http://www.w3.org/2000/svg" viewBox="0 0 114.9 114.9"><style>.st0{fill:#85D5ED}</style><path class="st0" d="M109.4 38.4c-.3-.3-.6-.3-1-.3l-2.2.4c-4.6.6-9.1 0-13.2-2.1-.4-.2-.6-.4-.6-.8a23.2 23.2 0 0 0-38.1-12.3l.8 1a9.4 9.4 0 0 1 1 9.7l-3.3 6.7a30 30 0 1 1-18.6 14.2l-7.4 1.4c-3.5.7-7-.7-9.1-3.5l-7.4-9.7-.5 1.1a31.2 31.2 0 0 0-2.6 6.2 32.9 32.9 0 0 0-1.3 17 50.7 50.7 0 0 0 9.7 21.2c3.7 4.7 8.2 8.5 13.8 11 2.6 1.2 5.3 2.1 8.1 2.1h46.7c2 0 4-.2 6-.6a23.2 23.2 0 0 0 18.5-24.4 22.9 22.9 0 0 0-16.8-20.3 3.2 3.2 0 0 1-2.4-2.6c-.2-1.1 0-1.3 1.1-1.2 5.6.7 10.7-.6 15.4-3.7l.7-.7c.4-.8-.1-1.5-.9-1.4h-1.2a21 21 0 0 1-7.4-1l.6-.2c4.3-.8 8.1-2.7 11.4-5.6.2-.2.5-.4.6-.8-.1-.1-.1-.5-.4-.8zm-28.8 2.4a4.1 4.1 0 0 1-4.1-4.3c0-2.3 1.9-4.1 4.2-4.1 2.3 0 4.2 1.9 4.1 4.3 0 2.2-1.9 4.1-4.2 4.1z"/><path class="st0" d="M23 48.1a4 4 0 0 0 3.9 1.5L37 47.7l6.5 8.5a21.6 21.6 0 1 0 7.3-5.8L44.4 42l4.5-9.2a4 4 0 0 0-.4-4.2l-10.7-14a4 4 0 0 0-6.8.7l-5 10.3-11.3 2.2a4 4 0 0 0-2.4 6.4L23 48.1zm37.2 7.5a14.2 14.2 0 1 1-12 6.6l6.2 8a6 6 0 1 0 7.1-6.3l-5.9-7.6c1.4-.4 3-.7 4.6-.7z"/></svg>