<svg enable-background="new 0 0 114.9 114.9" viewBox="0 0 114.9 114.9" xmlns="http://www.w3.org/2000/svg"><path d="m106.7 57.9c-3.9-7.3-9.5-11.9-16.5-13.8-.4-.1-.8-.2-1.2-.3-1-.2-2-.4-3.1-.5 7.7-1.8 13.4-8.7 13.4-16.9 0-9.6-7.8-17.4-17.4-17.4s-17.4 7.8-17.4 17.4c0 8.2 5.7 15.1 13.4 16.9-1.1.1-2.1.2-3.1.5-7.4 1.6-13.3 6.2-17.4 13.5-3.9-7-9.4-11.4-16.2-13.2-.4-.1-.8-.2-1.2-.3-1-.2-2-.4-3.1-.5 7.7-1.8 13.4-8.7 13.4-16.9 0-9.6-7.8-17.4-17.4-17.4s-17.4 7.8-17.4 17.4c0 8.2 5.7 15.1 13.4 16.9-1.1.1-2.1.2-3.1.5-7.6 1.6-13.6 6.4-17.7 14-3.6 7-4.3 13.9-4.4 14.2-.3 2.6 1.6 4.9 4.3 5.2h.5c2.4 0 4.5-1.8 4.7-4.3.1-.6 1.1-9.9 7.1-15.7v17.3 25.9c0 3 2.4 5.4 5.4 5.4s5.4-2.4 5.4-5.4v-20.3h3.7v20.3c0 3 2.4 5.4 5.4 5.4s5.4-2.4 5.4-5.4v-25.9-17.3c6 5.8 7.1 15.1 7.1 15.7.2 1.9 1.6 3.5 3.3 4h.1c.3.1.5.1.8.2h.1.2.2.5.2c.2 0 .3-.1.5-.1.1 0 .3-.1.4-.1.2-.1.3-.1.5-.2.1 0 .2-.1.3-.1.2-.1.4-.2.6-.4l.1-.1c.9-.8 1.6-1.9 1.7-3.1.1-.6 1.1-9.9 7.1-15.7v17.3 25.9c0 3 2.4 5.4 5.4 5.4s5.4-2.4 5.4-5.4v-20.4h3.7v20.3c0 3 2.4 5.4 5.4 5.4s5.4-2.4 5.4-5.4v-25.9-17.3c6 5.8 7.1 15.1 7.1 15.7.3 2.5 2.3 4.3 4.7 4.3h.5c2.6-.3 4.5-2.6 4.3-5.2-.1-.3-.8-7.2-4.5-14.1z" fill="#88d6ee"/></svg>