<svg id="Layer_1" xmlns="http://www.w3.org/2000/svg" viewBox="0 0 114.9 114.9"><style>.st0{fill:#85D5ED}</style><path class="st0" d="M83.3 40.2C78.6 30 71.8 23.1 68.1 24.8c-.4.2-.7.4-.9.7-4 .9-20.7 4.7-30.6 9.2C5.6 49.1 2 62.8 7.7 75.1l.3.6c-.9-.4-2-.5-3.1-.3-3 .6-5 3.5-4.5 6.5a5.6 5.6 0 1 0 11.2-.8c.6.7 1.3 1.4 2.1 2v-1.5l.3 3.6c1.8 10 10.7 16.7 19.9 15 4.6-.8 8.4-3.7 10.8-7.5l.6-1.1c1.3-2.4 2-5.2 2.1-8.1v-1.4-.9l-.1-.6-.2-1.5-.4-1.8-.2-.6-.4-1.1-.3-.7-.4-.9-.4-.8-.4-.7-.6-.8-.4-.6-.7-.9-.4-.5-.8-.8-.3-.3-1-.8-.3-.2-1.1-.8-.2-.2-1.2-.7-.2-.1-1.3-.6H36l-1.4-.5-1.5-.4a16 16 0 0 0-4.9-.2l1.2-.3A19.1 19.1 0 0 1 51.7 79c.2.9.2 1.9.3 2.8l5.4-2.4 4-2c.1 6.6-4.1 12.4-10.2 13.5l-1.2.2c-.5 1-1.1 1.9-1.7 2.7 1.7.3 3.4.3 5.1 0 8.3-1.5 13.8-9.9 12.7-19C75.7 69.1 85.4 62 85.4 62c3.5-1.9 2.6-11.5-2.1-21.8zM35.5 83.4c.7 4-1.6 7.8-5.3 8.5-3.7.7-7.3-2-8-6-.2-.9-.2-1.7-.1-2.5-.1 1 .1 2.1.5 3.2 1.4 3.4 5 5.2 8.1 3.9 3.1-1.2 3.9-4.9 2.5-8.4-1.4-3.4-4.5-5.3-7.6-4l-.3.1c.6-.4 1.4-.7 2.1-.8 3.7-.7 7.3 2 8.1 6zm29.9-34.8c-4.3-9.2-4.5-20.6 1.3-22.4-1.9 3.4-.6 11.6 3.3 20.2 3.8 8.3 9 14.4 12.8 15.5-7.4.9-13.1-4.1-17.4-13.3zm18.4 9.1c-2.3 1-7.1-4.5-10.7-12.3-3.6-7.9-4.7-15.1-2.5-16.1 2.3-1 7.1 4.5 10.7 12.3 3.7 7.9 4.8 15.1 2.5 16.1zM114.3 23.3a10.9 10.9 0 0 0-20.6-2.6L85 27.1l.5 1 7.3-2 .1 1-8.5 8.5.6.9 10.3-4.2 1.5 1.5-4.1 3.4.6.7 10.3-1.6c.7 0 1.4 0 2.1-.2l1.4-.4a11 11 0 0 0 7.2-12.4z"/></svg>