<svg id="Layer_1" xmlns="http://www.w3.org/2000/svg" viewBox="0 0 114.9 114.9"><style>.st0{fill:#85D5ED}</style><path class="st0" d="M106.6 98L85.8 77.3l4.6-4.6 7.5-.4s1.7-7.6-.9-10.2c-2.5-2.6-10-.8-10-.8l-.4 6.7-18.1 18.1-6.7.4s-1.8 7.5.8 10.1c2.6 2.6 10.2.9 10.2.9l.4-7.5 4.6-4.6L98.5 106s5.2 5.2 9.3 1.2c4-4-1.2-9.2-1.2-9.2z"/><path class="st0" d="M8.7 6.1l5.6 14.6s3.7 9.8 10.1 16.7c3.8 4.1 10.9 9.9 20.3 18.1a9924 9924 0 0 1 26.2 23l9.1-8.9S77.7 66.5 57.4 43c-8.1-9.4-13.7-16.7-17.7-20.6A58.3 58.3 0 0 0 23.3 12L8.7 6.1zM46.3 85.5l-18-18.1-.4-6.7s-7.5-1.8-10.1.8c-2.6 2.6-.9 10.2-.9 10.2l7.5.4 4.6 4.6L8.3 97.4s-5.2 5.2-1.2 9.3c4 4 9.3-1.2 9.3-1.2l20.7-20.7 4.6 4.6.4 7.5s7.6 1.7 10.2-.9c2.6-2.6.8-10.1.8-10.1l-6.8-.4z"/><path class="st0" d="M35.8 69.8l8.9 9.1 11.2-9.3-11.3-9.9-8.8 10.1zM91.9 38.6a58.3 58.3 0 0 0 10.4-16.4l5.9-14.5-14.6 5.6S83.8 17 76.9 23.4c-3.8 3.6-9.2 10-16.5 18.4l11.9 13.8c8.9-7.8 15.8-13.1 19.6-17z"/></svg>