<svg xmlns="http://www.w3.org/2000/svg" id="Layer_1" viewBox="0 0 97 105"><style>.st13{fill:#fff}.st16{fill:#fe0000}.st17{fill:#af0000}.st18{fill:#314e13}.st19{fill:#a3d113}.st23{fill:#af0101}.st31{fill:#ecfdbe}.st32{fill:#ebfcbd}.st34{fill:#639421}.st47{fill:#ccd8db}.st50{fill:#fefefe}</style><linearGradient id="SVGID_1_" x1="48.86" x2="48.86" y1="25.9" y2="44.89" gradientUnits="userSpaceOnUse"><stop offset="0" stop-color="#a52f0a"/><stop offset="1" stop-color="#852704"/></linearGradient><path fill="url(#SVGID_1_)" d="M94.3 19.3c-1.5-1-3-1.6-4.4-1.6-1.2 0-2.4.4-3.2 1.2-1 1-1.4 2.2-1.3 3.6.1 1.4.8 2.7 1.8 3.9-.7.1-1.7.6-2.3 2.1-.3.8-.5 1.8-.8 3.6-.3 2.4-1.3 9.9-1.7 14.6-.1-.2-.1-.4-.1-.6-.8-3.4-2.4-3.9-3.3-3.9-.7 0-1.4.3-2.5.8-.9.4-2.1.9-2.9 1-.5.1-1.1.1-1.7.1-1.2 0-3.3-.2-4.9-1.2-1.3-.9-1.3-1.6-.7-2.9.6-1.2 4.1-6.1 7.2-9 .9-.8 2.1-1.8 3.3-2.9 3.1-2.8 6.7-6 8.7-8.1 3-3.1 5.1-5.4 4.9-8-.1-1-.4-2.4-2-3.6-1.1-.8-2.8-1.4-5.5-2.2l-3.1-.9c-4-1.1-8.1-2.3-13.1-3-.5-.1-.9-.1-1.4-.2-4.1-.6-7.9-1.2-10-1.2-.8 0-1.7.1-2.3.6-1.2 1-1.1 2.8-.7 4.2.3 1.3.8 3 1.7 5.1.6 1.4 2.1 4.8 4.4 4.9h.2c1 0 1.7-.5 2.5-.9.7-.4 1.4-.9 2.3-1 .9-.2 1.7-.2 2.4-.2 1 0 1.8.2 2.7.5.6.3.9.4 1.1.6-.1.1-.2.3-.5.6-.8.9-2.3 2.6-3.9 4.3-2.1 2.3-4.5 4.9-6 6.6a69.1 69.1 0 0 0-7.3 10.4c-.7 1.2-1.3 2.5-1.8 3.8 0-.6-.1-1.2-.1-1.7-.3-4.6 0-9.4.1-12.2v-.3c0-.6.1-1.1.1-1.7.2-1.7.3-3.3-.7-4.3-.2-.3-.6-.6-1.1-.7.4-.2.7-.4 1-.7 1.2-1 1.9-2.5 1.9-4s-.7-2.9-1.9-4c-1.1-1-2.6-1.5-4.2-1.5s-3.1.5-4.2 1.5c-1.2 1-1.9 2.5-1.9 4s.7 2.9 1.9 4c.3.3.7.5 1 .7-.4.1-.7.2-1 .3-1.5.7-1.8 2.3-1.9 2.9-.2 1-.3 2.4-.3 3.9-.1 1.9-.1 6.3-.1 10.3a42.16 42.16 0 0 0-9.3-12.8c1.4-1.9 3.9-5.3 5.5-8.1 2.1-3.8 3.4-6.6 4.1-9.8.4-1.9.7-3.6-.3-4.9A3.1 3.1 0 0 0 36.2.2h-.8c-1.3.2-3.3.4-5.1.8-3.3.6-4.2 1.1-4.8 1.8-.5.6-.7 1.4-.9 2.3-.3 1.2-.8 3.2-2.5 6.7-1.4 2.9-3.2 6.7-5 9.9-1 1.7-1.7 3-2.3 3.9 0-1.4 0-3.4.1-5.6.3-4.2 1.2-8.6 1.5-9.5.4-1.7.6-3-.2-4-.5-.6-1.2-.9-2-.9-.3 0-.6 0-1 .1-1.6.4-6.1 2-7.6 2.6-2 .8-3.9 2.2-4.6 7-.5 3.8-.5 9.5 0 17.5.1 6.1 1.5 18.9 2.4 23.2.4 2 .8 3.3 1.3 4.2.9 1.7 2.1 2 2.9 2 .3 0 .7-.1 1.1-.2 1.2-.4 5.1-1.8 6.6-2.4.1 0 .2-.1.3-.1.7-.3 1.7-.6 2.4-1.4.7-.7 1.3-1.9.9-3.8-.1-.5-.3-1.2-.6-2.1-.4-1.6-1.1-3.8-1.5-5.8-.8-2.7-.8-3.6-.8-3.7.4-1.4 1.6-4.1 2.8-5.5.3-.4 1-1.2 1.5-1.6.9.8 2.6 2.7 3.7 6.4 1.2 4 1.3 7.1 1.4 8.8 0 .5 0 .9.1 1.2.1.7.2 1.5.7 2.1.4.6 1.2 1.4 2.7 1.4.4 0 .8 0 1.2-.1 1.7-.3 4.7-.9 6.8-1.2.2 0 .4-.1.6-.1.9-.1 1.9-.2 2.7-1 .1-.1.1-.2.2-.2.5.4 1.2.6 1.9.6 1.2 0 5.3-.1 5.7-.1.6 0 1.4-.2 2-.8 1.1.6 2.6.8 3.9.9 4.4.3 10.7 1.1 13.9 1.9 3.6.8 8 2 9.9 2.7h.1c1.6.6 2.9 1 4.1 1 .4 0 .8-.1 1.2-.2 1 1 2.3 1.5 3.4 2 .2.1.4.2.5.2l.6.3c1 .5 2.2 1 3.2 1 .9 0 1.7-.4 2.2-1.2.5-.9.5-2.3.4-5.3v-1.4-2.7c0-2.4 0-4.4.2-7.2.3-4 .7-7.1 1.2-8.9.1-.5.3-1 .4-1.4.4-1.3.8-2.5.2-3.7-.1-.2-.3-.7-1.5-1.5 1.3-.2 2.4-.9 3-2 1.1-2.1.5-5.7-2.6-7.8z"/><linearGradient id="SVGID_2_" x1="20.8" x2="20.8" y1="27.39" y2="52.5" gradientUnits="userSpaceOnUse"><stop offset="0" stop-color="#ffc21e"/><stop offset="1" stop-color="#e58f0c"/></linearGradient><path fill="url(#SVGID_2_)" d="M35.8 34.7c-3.2-5.9-6.9-9.4-8.9-11a.3.3 0 0 1 0-.4c.8-1 4.2-5.5 6.2-9 2.2-4 3.3-6.5 3.9-9.3.6-2.8.7-4-1.7-3.7s-8 1.1-8.7 1.9c-.7.8-.4 2.8-3.2 8.6s-7.5 15.5-9.9 16.7c-.8.4-1-4.6-.7-9.4.3-4.2 1.2-8.6 1.5-9.8.7-2.6.1-2.9-1-2.6C11.8 7 7.4 8.6 6 9.1c-1.4.6-2.9 1.4-3.5 5.5s-.4 10.5 0 17.1S4.3 50.8 5.2 55s1.7 5.1 2.9 4.7 5.1-1.8 6.5-2.3c1.4-.6 3-1 2.5-3.2-.6-2.2-3.2-10.9-2.8-12.6.4-1.7 1.8-4.6 3.2-6.2 1.4-1.7 2.5-2.9 3.2-2.5.7.4 3.5 2.5 5.1 7.9 1.7 5.4 1.4 9.1 1.5 10.4.1 1.2.4 2.2 2.5 1.8s5-1 6.9-1.2 2.9 0 2.8-2.8-.4-8.2-3.7-14.3z"/><linearGradient id="SVGID_3_" x1="45.01" x2="45.01" y1="27.39" y2="52.5" gradientUnits="userSpaceOnUse"><stop offset="0" stop-color="#ffc21e"/><stop offset="1" stop-color="#e58f0c"/></linearGradient><ellipse cx="45" cy="14" fill="url(#SVGID_3_)" rx="4.4" ry="3.7"/><linearGradient id="SVGID_4_" x1="44.77" x2="44.77" y1="27.39" y2="52.5" gradientUnits="userSpaceOnUse"><stop offset="0" stop-color="#ffc21e"/><stop offset="1" stop-color="#e58f0c"/></linearGradient><path fill="url(#SVGID_4_)" d="M48 38c-.3-4.8 0-9.9.1-12.7.1-2.8.8-5-.8-5-1.8 0-4.8-.1-5.7.3-1 .5-1.1 2.1-1.2 5.3-.1 3.2-.1 12.8 0 16.7.1 3.9.1 4.6.3 5.8.1 1.2.4 2.6 1.7 2.6 1.2 0 5.7-.1 5.7-.1s1.5 0 1.2-1.9c-.4-2-1-6.2-1.3-11z"/><linearGradient id="SVGID_5_" x1="69.19" x2="69.19" y1="27.39" y2="52.5" gradientUnits="userSpaceOnUse"><stop offset="0" stop-color="#ffc21e"/><stop offset="1" stop-color="#e58f0c"/></linearGradient><path fill="url(#SVGID_5_)" d="M72.3 29c3.2-2.9 9.1-8 11.9-10.9 2.8-2.9 4.6-4.8 4.4-6.6s-1.1-2.8-6.2-4.1-9.8-2.9-16-3.9c-5.8-.9-11.5-1.9-12.3-1.2-.8.6-.1 3.4 1.5 7.3 1 2.5 2.1 3.8 2.8 3.8 1 .1 2.2-1.5 4.6-1.9 2.3-.4 4.1-.4 6.1.4 1.9.8 3.2 1.8 1.2 4-1.9 2.2-7.3 7.9-9.9 10.9-2.6 3-5.5 7.3-7 10.1s-2.9 6.4-3.3 9.5-.1 4.4 4.1 4.7c4.3.3 10.6 1.1 14.2 1.9 3.6.8 8.2 2.1 10.1 2.8 1.9.7 3.5 1.2 4.3.8.8-.4.1-2.1-.4-4.3-.6-2.2-1.4-5.3-1.7-6.5-.3-1.2-.8-2.5-1.5-2.5s-3.3 1.5-5.1 1.8c-1.8.3-5.4.3-7.9-1.4s-2.1-3.6-1.4-5.1c.6-1.6 4.3-6.7 7.5-9.6z"/><linearGradient id="SVGID_6_" x1="91.42" x2="91.42" y1="27.39" y2="52.5" gradientUnits="userSpaceOnUse"><stop offset="0" stop-color="#ffc21e"/><stop offset="1" stop-color="#e58f0c"/></linearGradient><path fill="url(#SVGID_6_)" d="M93.3 20c-2.3-1.6-4.3-1.5-5.3-.5-1.7 1.7-.4 4.6 1.8 6.1 2.5 1.7 4.7 1.2 5.4 0 .7-1.3.4-3.9-1.9-5.6z"/><linearGradient id="SVGID_7_" x1="88.8" x2="88.8" y1="27.39" y2="52.5" gradientUnits="userSpaceOnUse"><stop offset="0" stop-color="#ffc21e"/><stop offset="1" stop-color="#e58f0c"/></linearGradient><path fill="url(#SVGID_7_)" d="M87.8 27.5c-1 0-1.4 1.2-1.8 4.1s-1.5 11.5-1.8 15.8c-.3 4.3-.8 8.4 0 9.4s2.3 1.5 3.6 2.1c1.2.6 3.2 1.7 3.7.8.4-.7.1-4.3.1-5.8 0-3.7-.1-6.2.1-10.1.3-3.9.7-7.2 1.2-9.3.6-2.1 1.1-3 .7-3.9-.3-.8-4.9-3.1-5.8-3.1z"/><g><linearGradient id="SVGID_8_" x1="19.71" x2="19.71" y1="4.1" y2="30.11" gradientUnits="userSpaceOnUse"><stop offset="0" stop-color="#fffdf7"/><stop offset="1" stop-color="#ffda25"/></linearGradient><path fill="url(#SVGID_8_)" d="M26.9 23.6a.3.3 0 0 1 0-.4c.8-1 4.2-5.5 6.2-9 2.2-4 3.3-6.5 3.9-9.3.6-2.8.7-4-1.7-3.7s-8 1.1-8.7 1.9c-.7.8-.4 2.8-3.2 8.6s-7.5 15.5-9.9 16.7c-.8.4-1-4.6-.7-9.4.3-4.2 1.2-8.6 1.5-9.8.7-2.6.1-2.9-1-2.6-1.5.4-5.9 2-7.3 2.5-1.4.6-2.9 1.4-3.5 5.5s-.4 10.5 0 17.1c.1 1 .2 2.2.3 3.5 3.2.9 7.9 1.7 13.7 1.4.3-.5.6-.9 1-1.3 1.4-1.7 2.5-2.9 3.2-2.5.4.3 1.6 1.1 2.9 3.1 4.2-.7 8-1.6 11.5-2.7-3.1-5-6.4-8.1-8.2-9.6z"/><linearGradient id="SVGID_9_" x1="45.01" x2="45.01" y1="4.1" y2="30.11" gradientUnits="userSpaceOnUse"><stop offset="0" stop-color="#fffdf7"/><stop offset="1" stop-color="#ffda25"/></linearGradient><ellipse cx="45" cy="14" fill="url(#SVGID_9_)" rx="4.4" ry="3.7"/><linearGradient id="SVGID_10_" x1="44.33" x2="44.33" y1="4.1" y2="30.11" gradientUnits="userSpaceOnUse"><stop offset="0" stop-color="#fffdf7"/><stop offset="1" stop-color="#ffda25"/></linearGradient><path fill="url(#SVGID_10_)" d="M47.3 20.3c-1.8 0-4.8-.1-5.7.3-1 .5-1.1 2.1-1.2 5.3-.1 1.2-.1 3.3-.1 5.7 3-1.1 5.5-2.3 7.7-3.3 0-1.1.1-2.1.1-2.9.2-2.9.8-5.1-.8-5.1z"/><linearGradient id="SVGID_11_" x1="71.18" x2="71.18" y1="4.1" y2="30.11" gradientUnits="userSpaceOnUse"><stop offset="0" stop-color="#fffdf7"/><stop offset="1" stop-color="#ffda25"/></linearGradient><path fill="url(#SVGID_11_)" d="M84.2 18.1c2.8-2.9 4.6-4.8 4.4-6.6s-1.1-2.8-6.2-4.1-9.8-2.9-16-3.9c-5.8-.9-11.5-1.9-12.3-1.2-.8.6-.1 3.4 1.5 7.3 1 2.5 2.1 3.8 2.8 3.8 1 .1 2.2-1.5 4.6-1.9 2.3-.4 4.1-.4 6.1.4 1.9.8 3.2 1.8 1.2 4-1.5 1.7-5.1 5.5-7.8 8.5 4.4-.2 9.3.3 13.6 1.4 2.9-2.8 6.2-5.7 8.1-7.7z"/><linearGradient id="SVGID_12_" x1="91.42" x2="91.42" y1="4.1" y2="30.11" gradientUnits="userSpaceOnUse"><stop offset="0" stop-color="#fffdf7"/><stop offset="1" stop-color="#ffda25"/></linearGradient><path fill="url(#SVGID_12_)" d="M93.3 20c-2.3-1.6-4.3-1.5-5.3-.5-1.7 1.7-.4 4.6 1.8 6.1 2.5 1.7 4.7 1.2 5.4 0 .7-1.3.4-3.9-1.9-5.6z"/><linearGradient id="SVGID_13_" x1="90.11" x2="90.11" y1="4.1" y2="30.11" gradientUnits="userSpaceOnUse"><stop offset="0" stop-color="#fffdf7"/><stop offset="1" stop-color="#ffda25"/></linearGradient><path fill="url(#SVGID_13_)" d="M93.7 30.7c-.4-.8-5-3.2-5.9-3.2-.7 0-1.1.6-1.4 2 2.6 1.1 5 2.2 7.2 3.2.2-.9.4-1.5.1-2z"/></g><g><path d="M27.6 81.8c.6.1.8.5 1 1 .3 1.4.9 2.7 1.4 4 .1.4-.2.4-.4.4a6 6 0 0 1-3.2-.7c-.5-.6-.8-1.3-.8-2 0-1 .5-1.7 1.3-2.3.3-.1.5-.3.7-.4zM22.7 72.3c-.6-2.4.1-4.2 2.6-4.8 1.5-.3 3-.3 4.5-.2.2.3 0 .5-.1.7-.5 1.4-.9 2.7-1.2 4.2-.1.8-.4 1.4-1 1.9-.3.2-.4.5-.7.7-.2.1-.3.1-.5 0-1.3-.7-2.6-1.4-3.6-2.5zM29.1 54.4c.1-.8.4-1.5.7-2.2.8-1.5 2-2.2 3.7-2 1.7.2 3.3.8 4.8 1.6.9.4 1.7.9 2.5 1.4 0 0 .1.1.1.2-.3.9-.5 1.9-1 2.8l-.1.1c-2.1 1.1-3.8 2.6-5.4 4.3-.1.1-.2.2-.4.3-.2.1-.4-.1-.6-.2-1.8-1.5-3.2-3.3-4.2-5.4 0-.4 0-.6-.1-.9zM45.8 44.8c.8-1 1.7-1.8 2.8-2.3 1.5-.7 3-.5 4.3.5 1.7 1.3 3 3 4.1 4.9 1.7 2.8 3.1 5.7 3.9 8.9.1.6.2 1.1.1 1.7-.3.1-.5 0-.8-.1-3.3-1.4-6.7-1.5-10.1-.5-.1 0-.2.1-.4.1-.4 0-.7-.3-.9-.6-2-2.5-2.9-5.4-3.1-8.5-.1-1.1-.2-2.2 0-3.2 0-.4 0-.7.1-.9z" class="st13"/><path fill="#324e13" d="M69.3 91.4c-.4.5-.9.9-1.4 1.5 1.5-.2 2.7.2 3.9.9.2.2.4.1.6 0 1.7-.5 3.3-.4 4.9.3.4.2.6.7 1.2.7 1-.1 1.9 0 2.8.3.6.2 1.1.6 1.4 1.2.6 1.1.9 2.3 1.1 3.5 0 .4 0 .9.3 1.3v1.3c-.3.1-.4.4-.5.7a4 4 0 0 1-1.4 1.5c-1.2.7-2.5.6-3.6-.5-.2-.2-.4-.4-.8-.2-1.1.7-3 .3-3.7-.6-.3-.3-.5-.4-.9-.1-1.7 1.1-4 .3-4.6-1.7-.1-.5-.6-.8-.7-1.3 0-.5.1-1.1.4-1.5.1-.1.2-.3.4-.2.2 0 .2.2.3.4.1.5 0 1.1.2 1.6.3 1.1 1.1 1.9 2.2 2.3 1.1.4 1.9 0 2.3-1.1 0-.1.1-.2.1-.4.1-3.2-1-6.1-4.8-6.8-1.5-.3-2.8.5-4 1.4-1.5 1.2-2 2.8-2.1 4.7 0 .2 0 .5-.2.7-.1.1-.3.1-.4.1-.6-.1-.7-.6-.6-1.1.1-.7.2-1.3.3-1.9.5-.9.9-1.9 1.6-2.6.4-.5.9-.9 1.3-1.4.5-.5 1.1-.8 1.8-1.1h.3c.7-.3 1.1-.8 1.7-1.3.1-.4.2-.8.6-.6z"/><path fill="#97c41b" d="M38.7 101.6c-.4-.2-.3-.5-.4-.8-.2-1.6-.6-3.1-1.4-4.5-.2-.4-.1-.7.4-.8.4-.1.8 0 1.1-.2.1 0 0-.1 0 0-.4.1-.9.1-1.3.2-1 .2-2.4-.6-2.8-1.5-.5-.9-1.1-1.8-1.5-2.7a29.6 29.6 0 0 1-3.4-7.7c-.3-1.1-.3-1.2.9-1-1-.4-1.9-.8-2.7-1.4a4.33 4.33 0 0 1-1.2-4.9c.3-.7.7-1.3 1.3-1.8.6-.6 1.1-1.2 1.7-1.7.3-.1.5-.2.8-.1 2.1.8 3.9.1 5.4-1.3 1.6-1.5 2.4-3.4 2.7-5.6.2-1.9 0-3.6-.9-5.3-.2-.4-.6-.7-.7-1.2.1-.4.6-.5.9-.8.6-.5 1.2-.8 1.8-1.2.2-.1.4-.3.6-.2.5 1.7 1.9 2.6 3.5 3.2.3.1.5.1.7.4 0 .5-.6.5-.7.8.7-.5 1.4-1.3 2.4-1.6.1 0 .2-.1.4-.1.6-.1.7 0 .7.6V62c0 .4.1.7.5.8.3.4-.1.5-.3.6-1.1.9-2.2 1.8-3.1 3-.5.7-1 1.3-1.3 2.2-.1.3-.2.5-.1.8-.6 1.8-.9 3.6-.8 5.4 0 .1 0 .3-.1.4-.3.7 0 1.3.1 2 .3 1.7 1.3 3.2 2.4 4.5.7.8 1.5 1.6 2.4 2.1.2.1.4.3.3.6-.2.3-.5.2-.7.1-.4-.2-.6-.6-1.1-.7-.2.2-.1.5-.1.8 0 .7-.4.9-1 .6-.2-.1-.4-.2-.6-.2-.8-.3-1.4-.9-2-1.5-.4-.3-.8-.7-1.1-1.1-.5-.5-.5-.7 0-1.2l.4-.4c-1.3.6-2.1 1.7-2.4 3.2.2-.2.3-.8.7-.7.4.1.3.6.3.9.3 2.1.9 4.2 1.9 6.1.3.5.6 1 .7 1.6.1.7.1 1.4.1 2v6.6c0 .3 0 .6-.2.9-.7.2-1.5 0-2.2.1-.5.1-.7 0-1 .1z"/><path d="M45.5 45.2c.7-.9 1.6-1.7 2.7-2.2 1.5-.7 2.9-.5 4.2.5 1.7 1.3 2.9 2.9 4 4.7 1.7 2.7 3 5.5 3.8 8.5.1.5.2 1.1.1 1.6-.3.1-.5 0-.7-.1-3.2-1.3-6.5-1.5-9.8-.5-.2 0-.3.1-.5.1-.4 0-.6-.3-.9-.6-1.9-2.4-2.8-5.2-3-8.2-.1-1-.2-2.1 0-3.1-.1-.2-.1-.5.1-.7zM29 55c.1-.8.4-1.5.7-2.2.8-1.5 2-2.2 3.7-2 1.7.2 3.3.8 4.8 1.6.9.4 1.7.9 2.5 1.4 0 0 .1.1.1.2-.3.9-.5 1.9-1 2.8l-.1.1c-2.1 1.1-3.8 2.6-5.4 4.3-.1.1-.2.2-.4.3-.2.1-.4-.1-.6-.2-1.8-1.5-3.2-3.3-4.2-5.4 0-.4 0-.6-.1-.9z" class="st16"/><path d="M39.7 56.7c.4-.9.7-1.9 1-2.9.7-1.7 1.3-3.4 2.3-5 .8-1.3 1.5-2.6 2.5-3.7 0 .6-.1 1.2-.1 1.8 0 3.7.7 7.1 3.1 10.1.2.3.4.6.8.6 0 .3-.2.3-.4.3-1.5.6-2.9 1.5-4.2 2.6-.2.1-.3.4-.6.3-.6-.2-1.1-.4-1.7-.6-1.3-.6-2.3-1.5-2.6-2.9-.2-.1-.1-.4-.1-.6z" class="st17"/><path d="M32.8 91.3c.6 1 1.2 2 1.7 3 .2.4.4.5.8.7 1 .5 2.1.4 3.3.4-.2.1-.4.1-.7.2-.2.1-.5.1-.7.1-.3 0-.3.1-.2.4 1.1 1.7 1.3 3.6 1.6 5.5.3 1.8-1.7 3.8-3.4 3.8-.9 0-1.6-.4-2.2-1-.2-.2-.4-.3-.7-.1-.9.7-2.9.4-3.7-.4-.4-.5-.8-.5-1.3-.1-1.7 1.2-4.4-.2-4.6-2.2 0-.1-.1-.2-.1-.3-.5 0-.7-.3-.7-.8s0-1 .3-1.5c.1-.2.2-.3.4-.3s.2.2.2.4c0 .5.1 1.1.2 1.6.4 1.2 1.2 2.1 2.5 2.4 1.2.3 2.2-.4 2.4-1.6v-.5c0-2.4-.7-4.4-2.8-5.6-1.7-1-3.5-1.1-5.3 0-2 1.3-3.1 3-3 5.4 0 .2 0 .5-.2.7-.9.1-.9.1-.9-.8 0-3 2.1-6.2 4.7-7.3 1.7-.7 3.3-.7 5 .1.6.3 1.1.2 1.6 0 1.2-.2 2.4-.2 3.5 0 .6.1 1.2.4 1.7.8.3.3 1.3.3 1.7.1-.5-.9-1-1.9-1.5-2.8.2 0 .2-.2.4-.3z" class="st18"/><path d="M16.7 101.6c-.1-1.3.1-2.5.6-3.7.3-.9 1.1-1.5 1.7-2 3.7-3 7.7-.5 8.7 2.4.3.9.5 1.9.5 2.9-.5.8-1.3 1-2.1 1.2-1 .2-1.9-.2-2.6-1-.1-.2-.2-.4-.4-.5-.2-.5-.2-.9-.2-1.4 0-.2.1-.4-.1-.5-.3-.1-.2.2-.3.4-.4.5-.1 1-.2 1.5 0 .2.3.4.5.5-2.1 0-4.1.1-6.1.2z" class="st19"/><path d="M22.7 72.9c-.6-2.4.1-4.2 2.6-4.8 1.5-.3 3-.3 4.5-.2.2.3 0 .5-.1.7-.5 1.4-.9 2.7-1.2 4.2-.1.8-.4 1.4-1 1.9-.3.2-.4.5-.7.7-.2.1-.3.1-.5 0-1.3-.7-2.6-1.4-3.6-2.5z" class="st16"/><path d="M29 55c.7 1.3 1.4 2.6 2.3 3.7.8.9 1.6 1.9 2.6 2.5.1.2-.1.4-.2.5a24.7 24.7 0 0 0-3.1 4.6c-.1.2-.2.5-.5.6-.5-.4-.6-1-.7-1.6-.6-3.1-1-6.2-.7-9.4.2-.2.3-.5.3-.9z" class="st17"/><path fill="#324f14" d="M60.7 58.5c.2-.3.4 0 .5 0 3.3 2.1 6 4.7 8.2 7.9 1.2 1.7 2.1 3.4 2.9 5.3.1.3.3.5.5.6.8.6 1.5 1.3 2.2 2 1.4 1.6 1.3 3.7-.3 5.3-.4.4-.5.8-.5 1.3-.1 3.4-1.5 6.3-3.6 9-.2-.2 0-.4.1-.6.1-.2.3-.5.3-.8.3-.9 1-1.6 1.2-2.5.1-.2.2-.5.3-.7.8-2.2 1-4.4.7-6.7v-.4c.1-.4.1-.7 0-1.1-.1-.6 0-.7.6-.6.3.1.6.2.8.5.4.5-.1.9-.2 1.4.5-.1.6-.5.6-.9.1-.8-.1-1.7-.5-2.4-.4-.8-1-1.6-1.8-2.1v.3c0 .1 0 .2-.2.2-.1 0-.1-.1-.2-.2 0-.1-.1-.2-.1-.2-.4-1.3-1-2.6-1.6-3.8-.4-.8-.9-1.6-1.4-2.4-.1-.2-.2-.4-.5-.4-.3-.1-.4-.3-.6-.6a23.27 23.27 0 0 0-6.4-6c-.1-.1-.2-.1-.2-.2-.1-.3-.4-.4-.6-.5-.2-.2-.3-.4-.2-.7z"/><path fill="#2b4d13" d="M30.2 66.9c1-2 2.2-3.9 3.7-5.6 1.7-1.9 3.5-3.5 5.8-4.6.2.2.1.4.1.7-1.1.6-2.1 1.3-3.1 2-.1.3-.3.5-.5.6-3.5 2.9-5.6 6.7-6.7 11-.2.6-.4 1.2-.3 1.9-.2.5-.6.8-1 1.2-.6.5-1 1.1-1.5 1.8-1.3 1.8-.6 4.7 1.4 5.7.7.3 1.3.6 2 1 .2.1.4.1.5.3-.5 0-.9-.1-1.4-.2.1.9.5 1.8.8 2.7.7 2.1 1.8 3.9 2.8 5.9 0 .2-.1.4-.3.5-.1-.1-.1-.2-.2-.2-.8-1.1-1.3-2.3-1.8-3.5-.1-.3-.2-.6-.4-.8-.5-1.1-.9-2.2-1.3-3.3-.2-.7-.4-1.3-1-1.8-1.2-.8-2-1.9-2.3-3.3-.4-1.2.2-2.8 1.2-3.6l1.2-1.2c.1-.1.2-.2.2-.4.3-2 .9-3.9 1.6-5.8.2-.3.4-.6.5-1z"/><path d="M27.9 82.1c.6.1.8.5 1 1 .3 1.4.9 2.7 1.4 4 .1.4-.2.4-.4.4a6 6 0 0 1-3.2-.7c-.5-.6-.8-1.3-.8-2 0-1 .5-1.7 1.3-2.3.2-.1.4-.2.7-.4z" class="st16"/><path fill="#2b4c13" d="M60.7 58.5c.1.3.3.5.5.6.1.1.5.1.3.4-.3.1-.5 0-.8-.2-1.6-.8-3.3-1.1-5.1-1.4-1.6-.2-3.1-.1-4.6.1-1.4.2-2.7.7-4 1.4-.4.2-.9.5-1.4.6-.9.6-1.7 1.3-2.5 1.9l-.1-.1c.3-.3.7-.6 1-1 1.3-1.1 2.6-2.1 4.1-2.7.3-.2.7-.3 1-.4 3.8-1.3 7.5-1.1 11.1.6.2.1.3.2.5.2z"/><path d="M26.6 86.9c1 .2 2.1.5 3.1.5.2 0 .5.1.5-.2.7 1.5 1.4 2.9 2.1 4.4-2.2-1.2-4.2-2.6-5.7-4.7zM26.8 75.2c-.8 1.1-1.4 2.2-1.2 3.6-1.3-1.8-2.3-3.8-2.8-5.9.7.5 1.4 1 2.1 1.4.6.4 1.1.8 1.9.9z" class="st23"/><path fill="#9bc626" d="M68 100.3c.2.4.9.6.7 1.3h-4.8c-.3 0-.6-.2-1-.1-.1-.1-.1-.3-.1-.4.2-.3.5-.3.8-.3.9.1 1.9 0 2.8 0 .5 0 .9 0 1.3-.4 0-.1.2-.1.3-.1z"/><path fill="#e1f1ad" d="M62.9 101.1v.3c-.6.2-1.2.1-1.8.1H38.7c.6-.2 1.2-.1 1.9-.1h1.1c.2-.2.5-.2.7-.2h19c.3 0 .7.1 1-.2.1.1.2.1.5.1-.1-.1 0 0 0 0z"/><path fill="#2d4a13" d="M71.1 88.6c.2.2 0 .4-.1.5-.1.3-.4.4-.4.8-.4.6-.8 1.1-1.2 1.5-.7.4-1.2 1.2-1.9 1.6-.1.1-.2.4-.5.1 0-.2.1-.3.2-.4 1.3-1.2 2.5-2.4 3.4-3.8.1-.1.2-.4.5-.3z"/><path fill="#63363a" d="M34 94.6s.1.1 0 .1c-.3.2-1.6.2-1.8 0-.8-.7-1.8-1-2.8-1H27c2-.5 3.8-.5 5.5.9.4.3 1 .2 1.5 0z"/><path fill="#5a3532" d="M78.5 94.8c-.2.2-.3.1-.5 0-.9-.9-2-1-3.2-1.1-.9-.1-1.8-.1-2.6.3-.2.1-.3 0-.4-.2l1.5-.3c1.4-.3 2.7-.1 4 .4.5.2.8.7 1.2.9z"/><path fill="#a3cb1b" d="M62.4 101.1c0 .3-.1.4-.4.4h-5.1c-.3-.9-.1-1.8-.1-2.6 0-.1.1-.3.1-.5-.3.1-.5.3-.8.5-.9.7-1.8.9-2.9.8-.4 0-.4 0-.4-.4.2-.1.4-.2.7-.2 1.5 0 2.7-.7 3.6-1.9.2-.2.4-.5.6-.7-.4.6-1 1-1.7 1.3-.4-.3-.1-.5.1-.6.2-.2.5-.3.7-.5.1-.2.2-.5 0-.6-.2-.1-.3.1-.5.2-.5.4-.9 1-1.6 1.2-.3.1-.6.3-.7-.2.4-.4.9-.5 1.3-.8.6-.5 1.1-1.2 1.3-1.9.2-.5.1-1.1-.1-1.6-.4-.8-.4-.9.4-1.5 1.3-.5 2.4-1.5 3.5-2.4.7-.5 1.3-1.1 1.8-1.8.8-.7 1.8-1.1 2.3-1.6-2.4 1.5-5.2 2.9-8.4 3.4-1.6.2-3.2.1-4.8-.2-.2 0-.4-.1-.4-.3.2-.3.5-.2.8-.2 1.6.2 3.2.3 4.8.1.1 0 .3 0 .4-.1.8-.5 1.7-.6 2.5-.8.4-.1.6-.3.4-.8-.1-.3-.1-.7 0-1 .1-.6.3-1 .9-1.3.4-.2.9-.3 1.1-.7.1-.3.4-.4.6-.6a10 10 0 0 0 4-7.3c0-.3-.1-.6 0-1 .1-2.4-.6-4.5-1.7-6.6-1-1.8-2.4-3.3-4.1-4.5-1-.7-2.1-1.2-3.2-1.6 0-.2-.4-.2-.6-.5 0-.1 0-.2.1-.3.2-.1.4-.1.6 0 1.2.4 2.4.7 3.4 1.6.1 0 .1.1.2.1-.5-.2-.6-.6-.6-1.1v-1.7c0-.6-.3-1-1-1.2-2.5-.8-5.1-1.1-7.8-.8-.2 0-.6.1-.7-.3 1.1-.2 2.3-.3 3.5-.3 1.3 0 2.6.3 3.8.6 1.2.3 2.2.8 3.3 1.3C64 61 66 62.9 67.8 65c.4.4.5 1 1 1.4.2.1.2.2.3.4 1.8 3.3 2.7 6.9 3.1 10.7.4 3.5-.1 6.8-1.5 10-.9 2.2-2.1 4.2-4 5.8-1.3.5-2.2 1.5-3.1 2.4-1 .7-2.1 1.3-3.1 1.7-.2.1 0 .2-.1.1v-.1c.2-.1.3-.1.5-.2.9-.4 1.2-.1 1.2.9 0 .8-.3 1.6-.3 2.4.1.3.2.6.6.6z"/><path d="M62.9 101.1c-.1 0-.1 0 0 0-.2-1 0-2 .3-2.9.4-1.8 3.1-3.7 4.6-3.9 2.6-.4 5.5 1.7 6 4.3.2.9.3 1.8.2 2.7-.2-.2-.4-.1-.5.1-.4.3-.9.4-1.4.5-1.2.2-2.1-.2-2.8-1.2-.1-.1-.1-.1-.2-.1-.3-.5-.2-1.1-.2-1.6 0-.1.1-.3-.1-.3-.1 0-.2.1-.2.2-.3.4-.2 1-.4 1.5-.4.7-1.1.7-1.7.6h-2.7c-.5 0-.8-.1-.9.1z" class="st19"/><path d="M74.5 101.7c.6-2.5 0-4.7-1.7-6.7-.1-.1-.3-.2-.3-.4.1-.2.3-.1.5-.2.7 0 1.4-.1 2.2 0 1.1 0 2 .5 2.5 1.5.8 1.6 1.4 3.3 1.3 5.2v.1c-.2-.1-.2-.3-.2-.4-.8 1.9-2.9 2.1-4.3.9z" class="st19"/><path fill="#dbf39d" d="M66.7 93.2A19.86 19.86 0 0 0 72 77.6c-.3-3.1-1.1-6.1-2.2-9-.2-.6-.5-1.2-.9-1.7-.1-.1-.2-.2 0-.2.3 0 .4.2.5.3.9 1.5 1.8 3.1 2.4 4.7.1.2.2.4.1.7 0 .5.2 1 .4 1.5.9 2.9 1.3 5.8.9 8.8-.1 1-.5 1.9-.6 2.8-.3 1.1-1 2.1-1.5 3.1-1.2 1.7-2.5 3.3-4.1 4.6h-.3z"/><path d="M79.3 102.7c.9-1.1.6-2.4.4-3.6-.2-1-.4-1.9-.8-2.9-.2-.4-.1-.6.4-.6 1.3 0 2.3.4 2.8 1.5.7 1.3 1.1 2.6 1.1 4.1-.6 1.7-1.8 2.3-3.3 1.8-.2 0-.5 0-.6-.3z" class="st19"/><path d="M74.5 101.7c.4.1.8.4 1.3.5 1.4.3 2.3-.2 3-1.4.1-.1.1-.3.2-.3 0 .3 0 .5.1.7-.1 2.2-2.6 2.8-4 2-.8-.3-.8-.5-.6-1.5z" class="st31"/><path d="M69 100.6c.2-.4.3 0 .3.1.7.9 1.6 1.3 2.7 1.1.6-.1 1.1-.3 1.6-.7.4-.4.3 0 .4.2-.1.3-.2.6-.3.8-.4.7-1.1 1-1.8.9-1.5-.3-2.5-1.1-2.9-2.4zM79.3 102.7c.2.1.4.1.5.2 1.2.5 2.3.1 2.9-1 .1-.2.2-.5.4-.6.3 2.2-1.4 3-2.8 3-.5 0-.9-.2-1.3-.5-.4-.2-.5-.5-.1-.8.2-.1.3-.2.4-.3z" class="st32"/><path fill="#304b12" d="M62.1 98c-.3-1.1-.3-1.1-1.4-.7-.2.1-.4.1-.6.2.2-.3.4-.4.6-.5.9-.4 1.7-.9 2.6-1.4.1-.1.3-.1.4-.1-.5.7-1 1.4-1.2 2.2-.1.2-.2.3-.4.3z"/><path d="M29.2 73c-.3-.2-.3-.5-.2-.8.8-3.6 2.2-7 4.6-9.9.9-1.1 1.9-2 3-2.8.1.5.6.9.8 1.3.8 1.6 1.1 3.3.9 5.1-.2 1.8-.8 3.5-2 4.9a5.78 5.78 0 0 1-4.5 2.5c-.6 0-1.2 0-1.7-.3-.3-.1-.6-.1-.9 0z" class="st34"/><path fill="#9bc61b" d="M54.1 97.1c.7.3 1.1-.2 1.5-.5.5-.4.8-.9 1.4-1.1.2 1.1.2 1.1-.6 1.6-.2.1-.6.2-.3.5 0 .3-.2.4-.4.5-.7.4-1.5.8-2.3.9-.1 0-.3 0-.4.2 0 .1-.3.1-.1.1 1 .1 2.1 0 3-.6.4-.3.8-.6 1.3-.8-.3 1.2-.2 2.4-.2 3.5H41.8v-8.7c0-.3-.2-.7 0-1 .2.1.3.3.4.4 2 2.8 4.6 4.6 8.1 5.1 1.1.1 2.1.1 3.2-.1.1 0 .3-.1.6 0z"/><path fill="#9ec81b" d="M51 58c.1.2.3.1.5.1 1.4-.3 2.8-.1 4.3-.1.7 0 1.3.1 1.9.5.5.3 1.2.2 1.7.4 1 .4 1.2.6 1.2 1.7v1.1c0 .6 0 1.1.7 1.3.1 0 .4.2.2.4-.1.2-.3 0-.4-.1-1.1-.9-2.5-1.3-3.8-1.8-.1 0-.2 0-.4-.1-.6.2-1.1-.1-1.6-.1-2.5-.3-4.8.3-7 1.5-.2.1-.5.4-.8.2-.6.1-.8-.1-.8-.7.1-.6-.1-1.3.1-1.9.1-.3-.2-.3-.4-.3s-.4.4-.6.1c1.5-1.1 3.3-1.9 5.2-2.2z"/><path fill="#9dc81b" d="M62.1 83.7c.2.2 0 .3-.1.3-.2.1-.5.3-.7.4-1 .5-1.3 1.3-.9 2.4.1.3.1.5-.2.6-.5.2-.9.4-1.5.4-.2 0-.3 0-.5.1-1.6 1-3.4.6-5.1.6-.6 0-1.2-.3-1.9-.1-.2.2-.4.1-.7 0-2.4-.6-4.7-1.6-6.7-3-.2-.1-.4-.2-.4-.5.3-.3.4.1.6.2.6.2.8.2.8-.5v-1.1c.5.1.8.3 1.1.6.1.1.2.3.5.3.1 0 .3.1.4-.1.1-.2 0-.3-.2-.4-.7-.2-1.1-.8-1.6-1.2-.6-.5-1.1-1.2-1.6-1.8-1.2-1.6-1.8-3.4-2.1-5.4 0-.2 0-.3.2-.3.2.2.2.5.2.7.5 2.9 1.9 5.3 4.3 7.1 1 .7 2 1.4 3.1 1.6 1.5.5 3.1.7 4.7.7.6 0 1.3 0 1.9-.1 2-.1 3.8-.7 5.6-1.6.3.2.5 0 .8.1z"/><path fill="#000100" d="M49.1 85c-.4.1-.7-.2-1-.3-3-1.4-5-3.6-6.1-6.7-.3-.8-.4-1.7-.5-2.6-.1-2.1.1-4.2.9-6.1.1-.6.4-1.1.7-1.6 2.1-3.3 5-5.5 8.9-6.3 1.5-.3 3-.2 4.4.1.2 0 .3.1.5.2l1 .3c5.1 1.7 8.8 7 9 12.3v.6c-.4-.1-.4-.5-.4-.8-.2-1.5-.7-2.9-1.3-4.3-.1-.2-.2-.4-.4-.6-.7-1.2-1.5-2.4-2.5-3.4-1.7-1.7-3.8-2.8-6.2-3.2-2.2-.3-4.4 0-6.4 1-1.9.9-3.6 2.2-5 3.9-.4.6-.7 1.2-1.1 1.8-.6.9-.9 2-1.1 3.1-.5 2.5 0 4.8 1.1 7.1.6 1.2 1.5 2.2 2.5 3.1.7.8 1.6 1.2 2.5 1.7.1.2.5.3.5.7z"/><path fill="#355615" d="M43.3 85c2.4 1.7 5 2.9 7.8 3.4.8.3 1.6.3 2.4.4 2.6.3 5-.4 7.3-1.4 1.5-.7 3-1.4 4.3-2.4.1-.1.2-.2.3-.1-.2.4-.6.6-.9.8-.3.3-.7.5-1.1.8-.3.2-.7.5-1.1.7-.8.7-1.9 1-2.9 1.4-.4.2-.7.4-1 .8-.4.7-.8 1.4-1.5 1.9-.1.1-.2.3-.4.4-.3.2-.3.4-.1.8.7 1.1.4 2.4-.7 3.5-.5.5-1.1.9-1.8 1.1-4.8 1.4-10-1.1-12.4-5.4-1-1.9-1.9-3.9-2.3-6.1-.1-.7-.3-1.5-.4-2.3-.4.3-.5.9-.9 1.2 0-1.7 1.3-3.4 3.1-3.9-.3.3-.6.6-1 .9-.3.2-.3.4 0 .7 1.1 1.1 2.1 2 3.3 2.8z"/><path d="M31.2 77.5c0-1.2.4-2.2 1.2-3 .8-.8 1.9-.9 2.9-.1 1.7 1.5 1.5 4.7-.6 6-1.1.7-2.2.4-3-1-.4-.6-.6-1.2-.5-1.9zM36 73.2c-.1-.4 0-.8.3-1.2.3-.4.7-.7 1.2-.6.6.1 1 .5 1.1 1 .2.8.1 1.5-.5 2.1-.4.4-.8.6-1.3.3-.5-.2-.8-.6-.8-1.2v-.4z" class="st34"/><path fill="#719e25" d="M30.5 77.3c.1.5-.1.9-.1 1.3 0 1.1.1 2.2.3 3.2.1.4-.1.4-.3.3-.7-.3-1.4-.7-2-1.2-.2-1.4.4-2.4 1.2-3.4.2-.2.5-.4.9-.2z"/><path d="M30.5 77.3c-1.4.3-1.7 1.6-2 2.7-.1.3-.1.6-.1.9-.6-.4-1-.9-1.4-1.4-.2-.3-.2-.5.1-.8 1.1-1.1 2.4-1.7 3.8-2.4-.2.5-.3.7-.4 1z" class="st18"/><path fill="#a7d51d" d="M56.9 61.7c-.8-.1-1.7-.3-2.5-.3-4.3-.1-7.5 1.8-10.2 5-.7.9-1.3 1.9-1.8 2.9-.3-.4.1-.7.2-1 .8-1.6 2-2.9 3.4-4.1.5-.4.9-.8 1.4-1.2.9-.4 1.8-1 2.7-1.3a11 11 0 0 1 4.4-.7c.8.1 1.6.1 2.4.4v.3z"/><path d="M28.9 102c.5-2.1.1-4-1.1-5.8-.3-.4-.7-.7-1-1.1-.2-.2-.3-.4.1-.4 1.1-.1 2.2-.3 3.4 0 .8.2 1.4.6 1.7 1.3 1 1.8 1.6 3.7 1.5 5.8 0 .1 0 .1-.1.2-.3-.3-.2-.7-.1-1-.2 1-.9 1.6-1.9 1.8-.9 0-1.8-.1-2.5-.8zM33.8 103c.9-1.2.6-2.4.4-3.7-.2-1.1-.5-2.1-1-3-.2-.4 0-.5.4-.5 1.6-.1 2.7.6 3.3 2 .5 1.2.9 2.3 1 3.6-.5 2-2.8 2.6-4.1 1.6z" class="st19"/><path d="M28.9 102c.5.2 1 .4 1.5.5 1.1.2 2.1-.3 2.7-1.3.1-.2.2-.4.4-.6v1.2c-.5 1.7-2 2.2-3.6 1.9-1-.1-1.3-.7-1-1.7z" class="st31"/><path fill="#ecfcbe" d="M23 100.8c.1-.1.2-.1.3 0 1.1 1.8 3.3 1.6 4.8.3 0 0 .1 0 .1-.1.1.6-.1 1.1-.4 1.6-.5.7-1.3 1-2.1.7-1.3-.4-2.3-1.2-2.7-2.5z"/><path d="M33.8 103c.4 0 .7.2 1.1.3 1.1.1 2-.3 2.5-1.2.1-.2.3-.5.4-.7.2 2-1.1 3.4-3 3.2-.3 0-.5-.1-.7-.2-1-.6-1-.6-.3-1.4z" class="st32"/><path fill="#29460e" d="M71.8 72.3c-.4-1.5-1.1-2.8-1.9-4.2-.3-.5-.5-1.1-1-1.5 0-.1-.1-.2-.1-.3 0-.1 0-.3.2-.1.2.3.5.5.7.9 1.2 2 2.3 4 2.9 6.3.3-.2-.2-.5.1-.7.6.4.5 1 .7 1.6.2.8.3 1.5.5 2.3-.2.2-.3-.1-.5-.1-.1.5.4 1.1 0 1.6-.3-.2-.3-.6-.3-.9-.2-1.6-.8-3-1.2-4.5-.1-.2-.2-.3-.1-.4z"/><path fill="#def4a0" d="M73.2 74.2c-.2-.5-.3-1.1-.6-1.5.1-.2.2-.1.3 0 1.3 1.1 2.2 2.4 2.4 4.1.1.6-.1 1-.3 1.5-.2.3-.5.4-.7.3-.3-.2 0-.4.1-.6.2-.3.4-.6.3-1.1-.4-.9-.8-1.9-1.5-2.7z"/><path fill="#e3f6a3" d="M71.8 72.3c.7 1.9 1.2 3.8 1.5 5.8.2 1.8.3 3.5-.1 5.3-.2.7-.3 1.4-.6 2.1-.2-.4.1-.7.1-1.1.4-1.7.6-3.3.4-5.1-.2-2.3-.7-4.4-1.4-6.6 0-.1-.1-.3.1-.4z"/><path fill="#a6ce1a" d="M73.2 74.2c.9.7 1.4 1.6 1.5 2.7-.3 0-.5-.3-.8-.4-.3-.2-.3-.5-.4-.8 0-.5-.2-1-.3-1.5z"/><path d="M64.8 69.1c.4.3.5.8.7 1.3.5 1.3 1 2.5 1.1 3.9 0 .2 0 .4.2.6-.3.3 0 .6 0 1-.4 3.4-2 5.9-4.7 7.8-1.6.9-3.3 1.6-5.2 1.9-.4.1-.8.1-1.1 0 .1-.3.4-.3.6-.4 2.1-.8 3.6-3 3.6-5.3 0-1 0-1.9-.3-2.8 0-.1-.1-.3 0-.4.2-.2.4-.2.7-.2 1.1-.1 2.2-.6 3.1-1.1 1.6-1 2-2.1 1.6-3.8-.1-.6-.3-1.2-.5-1.7 0-.3-.1-.6.2-.8z" class="st47"/><path fill="#84ae29" d="M57 91.4c.5-.8 1.2-1.5 1.6-2.4l.3-.3c1.2-.4 2.3-.9 3.5-1.5-.6.8-1.4 1.4-2.2 2.1-.9.7-1.7 1.4-2.7 1.9-.2.1-.3.2-.5.2z"/><path fill="#315015" d="M52.9 99.3c-.1-.4.2-.3.4-.3 1-.3 1.9-.7 2.7-1.3.6-.5 1.3-.9 1.8-1.6-.3.8-.9 1.5-1.6 2.1-.8.6-1.8 1.1-2.9 1-.1 0-.2.1-.4.1z"/><path d="M43.4 69.2c1.2-2.6 3.3-4.3 5.8-5.6h.2c.2.4-.1.5-.3.7-.8.7-1.5 1.5-1.8 2.5-.8 2.3-.2 4.2 1.2 6 .6.7 1.2 1.3 1.9 1.8.2.2.5.3.6.6 0 .4-.3.8-.4 1.1a7 7 0 0 0 .1 6.3c.5 1.2 1.4 2 2.6 2.5.3.1.6.2.6.6-1.5 0-3-.1-4.4-.7-.1 0-.2 0-.4-.1-.1-.2-.2-.2-.4-.3-2.3-1.1-4-2.7-5.2-4.9-.6-1.2-.9-2.5-1.1-3.8-.4-2.1.1-4.1.9-6.1-.1-.2 0-.4.1-.6z" class="st47"/><path d="M53.8 85.7c-.2-.1-.2-.3-.5-.4-2.1-.9-3.1-2.6-3.5-4.8-.4-2 .2-3.7 1.1-5.4.3-1 1.1-1.5 2-1.9 3.2-1.4 5.9.6 6.9 3.1v.2c.5 1.9.6 3.7-.2 5.6-.7 1.7-1.9 2.9-3.7 3.3-.1 0-.1.1-.1.1-.6.4-1.3.2-2 .2z"/><path d="M59.8 76.7a7.4 7.4 0 0 0-2.1-2.8c-2-1.5-4.8-.8-6.3.8-.1.2-.3.3-.4.5-1.4-.9-2.5-2-3.4-3.4-1.4-2.1-1.1-5 .6-6.8.3-.3.6-.7 1-.9.1-.1.2-.2.2-.4.9-.6 2-.8 3.1-1 5-1 9.7 2.1 11.8 5.8.1.3.3.5.5.7-.1.2 0 .5 0 .7.3.9.6 1.7.6 2.6 0 1.4-.7 2.3-1.8 2.9-1 .6-2.1 1.1-3.3 1.2-.1.1-.3.1-.5.1z" class="st50"/><path fill="#d6e2e5" d="M43.4 69.2c0 .2-.1.4-.1.6-.7 1.8-1.2 3.6-1 5.5.2 1.2.5 2.4.9 3.6.1.3.2.5.2.8 0 0-.1 0-.1-.1-1.5-3.3-1.7-6.6-.2-10 0-.1.1-.3.3-.4z"/><path d="M48.1 88.6c3.2.9 6.4 1.3 9.9.5-.7 1.1-1.5 2.1-2.3 2.9-.7.5-1.5.4-2.3.4-.5.1-1.1 0-1.6 0-2.5-.2-5-.7-7.2-2-.5-.3-1-.5-1.3-1 .1-1 .5-1.4 1.5-1.4.8 0 1.5.1 2.3.3.3.1.7.1 1 .3z" class="st50"/><path d="M43.3 89.5c2.2 1.6 4.6 2.4 7.3 2.7.3 0 .7.1 1 .1.5.2 1.1-.1 1.7.2-.9.3-.9 1.2-1.3 1.8-.1.3-.2.6-.5.7-.4 0-.7-.2-1.1-.4-1.2-.6-2.5-.8-3.9-.8-.6-.1-1.2 0-1.8-.1-.3 0-.6 0-.8-.2-.7-.3-1.1-1-1.6-1.6-1.1-1.4-1.7-3-2.2-4.7 0-.2-.2-.3.1-.4.3 0 .5.2.6.4.7.8 1.4 1.3 2.2 2 .2.1.3.2.3.3z"/><path fill="#bfcbd5" d="M43.3 89.5c-1.2-.6-2.1-1.6-3-2.6-.7-1.4-.8-2.9-1-4.4.2-.1.2-.1.3 0 2.1 2.7 4.8 4.5 8 5.8.2.1.4.1.5.3-.9 0-1.8-.2-2.7-.3-.3 0-.6-.1-.9 0-.7-.1-1.1.4-1.2 1.2z"/><path fill="#43121a" d="M51.5 95c.4-.5.6-1.2.8-1.8.1-.5.3-.8.9-.7-.5-.2-1.1.1-1.5-.2 1.4 0 2.7 0 4.1-.3.7 1.7.2 3.1-1.2 4.2-.5.4-1 .7-1.7.7-.4-.7-1-1.3-1.4-1.9z"/><path fill="#c03348" d="M43.9 93.6c.9 0 1.8-.2 2.7.1.6.2 1.3.1 1.9.3 1.1.3 2.3.7 3.1 1.6.4.4.6.9.9 1.3-1.9.3-3.7 0-5.4-.9-.9-.5-1.8-1.1-2.6-1.8-.2-.1-.5-.3-.6-.6z"/><path fill="#dd7282" d="M52.5 96.9c-.1 0-.3 0-.4-.2-.6-1.7-2.2-2.2-3.7-2.7-.6-.2-1.2-.1-1.8-.4 1.8-.1 3.3.5 4.9 1.3.6.5 1.3 1 1.3 1.9-.1.1-.2.1-.3.1z"/><path fill="#fdfdfd" d="M56.4 74c1.4 0 2.8 1.8 2.4 3.1-.2.6-.5.8-1 .4-.8-.6-1.6-1.1-2.5-1.5-.5-.2-.6-.8-.2-1.3.3-.5.8-.7 1.3-.7z"/></g></svg>